:SAMPLES-PER-SECOND 30
:FULLY-SPECIFIED
:DEGREES
1639
root  62.2432 34.1025 5.82299 144.968 69.8574 140.998
RightUpLeg  -39.0386 -12.3504 -19.3221
RightLeg  57.433 0.331 0.107922
RightFoot  -17.6865 0.106889 4.08749
RightToes  -1.81608e-008 0 -3.6325e-017
Spine  25.3064 -2.47776 -1.4074
Spine1  -9.88442 -2.96633 1.65054
HEad  -29.0966 -9.15132 -2.13018
LeftShoulder1  0.314359 2.21063 -17.5373
LeftArm  -7.7254 -40.1497 -54.6883
LeftForeArm  -7.92451 -45.803 -12.0449
LeftHand  -0.0430715 6.88962 -0.402485
RightShoulder  0.0250199 -3.35469 13.0394
RightArm  -15.9121 37.1507 31.0266
RightForeArm  -22.1044 54.5113 17.5292
RightHand  -0.0998201 1.38418 -1.8405
LeftUpLeg  -15.7242 14.9953 18.4991
LeftLeg  9.38677 -5.56862 -0.459905
LeftFoot  2.02169 2.13092 -18.1637
LeftToes  1.81866e-011 -6.13092e-011 2.52013e-011
1640
root  62.4656 34.1324 6.0336 142.773 70.0503 139.122
RightUpLeg  -38.68 -12.6866 -19.176
RightLeg  57.6739 0.621883 0.607276
RightFoot  -18.0326 0.0917493 3.65959
RightToes  -1.81608e-008 0 -3.6325e-017
Spine  25.7709 -2.49796 -1.74057
Spine1  -9.76143 -3.02999 1.27289
HEad  -30.0372 -8.24334 -2.30279
LeftShoulder1  0.415918 1.73902 -16.9205
LeftArm  -7.42086 -43.9158 -53.7218
LeftForeArm  -10.4171 -42.3687 -10.8452
LeftHand  -0.0478327 7.16625 -0.572315
RightShoulder  0.117847 -2.87145 12.0424
RightArm  -16.1995 40.9195 30.5419
RightForeArm  -25.9446 50.0427 15.1214
RightHand  -0.133619 1.95396 -2.28654
LeftUpLeg  -16.1529 15.2934 17.8428
LeftLeg  6.87141 -4.54046 -0.449126
LeftFoot  2.54511 2.24369 -18.4177
LeftToes  1.81866e-011 -6.13092e-011 2.52013e-011
1641
root  62.6691 34.0789 6.18235 141.04 70.7594 137.782
RightUpLeg  -38.6135 -12.8294 -18.5732
RightLeg  58.3043 0.967302 1.2289
RightFoot  -18.3502 0.0361125 2.62139
RightToes  -1.81608e-008 0 -3.6325e-017
Spine  26.0017 -2.78715 -0.662223
Spine1  -9.14989 -2.89317 -0.996469
HEad  -30.0588 -7.94043 -1.82855
LeftShoulder1  0.541362 1.01299 -14.8465
LeftArm  -7.79609 -47.5815 -53.3776
LeftForeArm  -12.7038 -38.6962 -9.70989
LeftHand  -0.0508247 7.4841 -0.865027
RightShoulder  0.137842 -2.76292 11.9334
RightArm  -17.057 45.118 29.5239
RightForeArm  -28.4298 45.133 12.9081
RightHand  -0.115663 2.0964 -1.97703
LeftUpLeg  -16.5582 15.5628 17.8176
LeftLeg  5.1477 -3.43766 -0.596856
LeftFoot  3.11732 2.31938 -18.2991
LeftToes  1.81866e-011 -6.13092e-011 2.52013e-011
1642
root  62.8603 33.9609 6.25015 138.383 71.831 135.458
RightUpLeg  -38.8385 -12.5757 -18.0251
RightLeg  59.1387 1.32995 1.93003
RightFoot  -18.8479 -0.0163695 1.69331
RightToes  -1.81608e-008 0 -3.6325e-017
Spine  26.474 -2.76648 -0.224556
Spine1  -8.96582 -2.63965 -2.30292
HEad  -30.0238 -7.35172 -1.88835
LeftShoulder1  0.596094 0.570256 -13.2708
LeftArm  -6.71633 -52.3044 -52.0981
LeftForeArm  -18.0755 -33.9428 -8.51623
LeftHand  -0.0347806 6.99897 -0.200129
RightShoulder  0.19996 -2.38851 11.1004
RightArm  -18.0788 49.1387 28.6907
RightForeArm  -29.516 39.9741 10.9689
RightHand  0.011996 2.47128 -0.0186938
LeftUpLeg  -16.4517 15.4853 17.8144
LeftLeg  3.61738 -2.80779 -0.494346
LeftFoot  3.46059 2.38811 -18.4118
LeftToes  1.81866e-011 -6.13092e-011 2.52013e-011
1643
root  63.0226 33.8098 6.25123 135.023 73.3591 132.662
RightUpLeg  -38.9565 -11.8447 -17.3436
RightLeg  59.9626 1.74475 2.77569
RightFoot  -19.5111 -0.0341743 1.37026
RightToes  -1.81608e-008 0 -3.6325e-017
Spine  27.7511 -2.65187 -0.0341491
Spine1  -9.7015 -2.40142 -3.01954
HEad  -31.378 -6.54032 -1.58247
LeftShoulder1  0.574204 0.502523 -11.9945
LeftArm  -7.81855 -55.8719 -51.2124
LeftForeArm  -20.4496 -29.9802 -7.54664
LeftHand  -0.0634694 8.11577 -0.721513
RightShoulder  0.354156 -1.37711 9.44279
RightArm  -19.0478 52.7886 28.4735
RightForeArm  -31.1169 33.9557 9.0973
RightHand  0.0599087 2.49207 0.680021
LeftUpLeg  -16.0278 15.5602 18.0292
LeftLeg  3.04756 -2.06193 -0.316126
LeftFoot  3.46919 2.36486 -18.2207
LeftToes  1.81866e-011 -6.13092e-011 2.52013e-011
1644
root  63.1807 33.67 6.15771 131.718 74.9802 129.243
RightUpLeg  -39.7423 -11.251 -16.5612
RightLeg  60.6876 2.13844 3.62022
RightFoot  -19.8378 -0.0632933 0.955205
RightToes  -1.81608e-008 0 -3.6325e-017
Spine  27.8982 -2.68323 1.16032
Spine1  -9.68994 -1.97411 -4.7953
HEad  -32.3811 -6.06076 -1.16641
LeftShoulder1  0.628682 0.0432013 -10.9519
LeftArm  -9.18824 -59.6907 -50.0901
LeftForeArm  -21.7184 -26.0347 -6.62134
LeftHand  -0.0888713 8.83831 -1.30168
RightShoulder  0.432834 -0.632974 7.53158
RightArm  -19.5751 56.3138 27.6971
RightForeArm  -34.5326 27.492 7.46204
RightHand  0.0361228 2.34616 0.346817
LeftUpLeg  -15.7619 15.2591 18.0109
LeftLeg  2.40777 -2.24274 -0.00798754
LeftFoot  3.83408 2.35132 -17.798
LeftToes  1.81866e-011 -6.13092e-011 2.52013e-011
1645
root  63.3219 33.5735 6.0353 128.663 76.59 126.113
RightUpLeg  -40.2602 -11.0314 -15.6182
RightLeg  61.022 2.6252 4.62752
RightFoot  -20.083 -0.0832549 0.687548
RightToes  -1.81608e-008 0 -3.6325e-017
Spine  28.3147 -2.72651 1.90408
Spine1  -9.83431 -1.68171 -6.05314
HEad  -33.6658 -5.67735 -0.575599
LeftShoulder1  0.640328 -0.385355 -9.0213
LeftArm  -10.9246 -63.0379 -48.7655
LeftForeArm  -22.9519 -21.8342 -5.66768
LeftHand  -0.0836395 9.12298 -1.0059
RightShoulder  0.462548 -0.221235 6.472
RightArm  -19.9287 60.2725 26.6895
RightForeArm  -35.8713 20.8872 5.71902
RightHand  0.125158 2.61919 1.60792
LeftUpLeg  -15.4661 14.6092 18.0895
LeftLeg  1.77413 -7.4864 0.721834
LeftFoot  6.89438 2.89844 -17.9643
LeftToes  1.81866e-011 -6.13092e-011 2.52013e-011
1646
root  63.4503 33.4246 5.79617 125.591 78.1858 122.692
RightUpLeg  -41.1425 -10.4495 -14.8315
RightLeg  61.5638 2.88734 5.25628
RightFoot  -20.3315 -0.0821054 0.704311
RightToes  -1.81608e-008 0 -3.6325e-017
Spine  28.6181 -2.70849 2.28965
Spine1  -10.0659 -1.63768 -5.87458
HEad  -35.4639 -4.31399 -0.154824
LeftShoulder1  0.608567 -0.574173 -7.32777
LeftArm  -12.0492 -66.2965 -46.6494
LeftForeArm  -24.8121 -17.4817 -4.58476
LeftHand  -0.113942 10.0793 -1.40134
RightShoulder  0.515837 0.399509 5.43224
RightArm  -19.9618 63.4701 25.7979
RightForeArm  -37.9856 16.0192 4.41384
RightHand  0.0849058 2.1493 1.13105
LeftUpLeg  -14.9082 14.1644 18.5706
LeftLeg  -0.147433 -14.4942 1.64688
LeftFoot  9.47589 4.46932 -24.4283
LeftToes  1.81866e-011 -6.13092e-011 2.52013e-011
1647
root  63.5796 33.3637 5.57787 122.487 79.6637 118.906
RightUpLeg  -42.1143 -9.6663 -13.9397
RightLeg  61.6148 2.95447 5.40294
RightFoot  -20.0275 -0.109202 0.348856
RightToes  -1.81608e-008 0 -3.6325e-017
Spine  28.8763 -2.8174 2.88375
Spine1  -10.4057 -1.58512 -6.41761
HEad  -36.221 -3.47202 0.555931
LeftShoulder1  0.574334 -0.833392 -5.41935
LeftArm  -13.4902 -68.9014 -44.8637
LeftForeArm  -26.0482 -13.2341 -3.52745
LeftHand  -0.147972 9.59183 -2.5016
RightShoulder  0.530608 0.624134 5.03582
RightArm  -20.8778 66.5166 24.0857
RightForeArm  -38.9551 11.6056 3.98904
RightHand  0.0917113 2.03079 1.24714
LeftUpLeg  -15.5388 14.8158 19.5435
LeftLeg  1.28579 -17.1798 1.33717
LeftFoot  7.80174 4.7632 -28.0506
LeftToes  1.81866e-011 -6.13092e-011 2.52013e-011
1648
root  63.7038 33.3527 5.32855 117.081 80.5342 113.13
RightUpLeg  -42.5693 -8.8503 -13.9093
RightLeg  61.5303 3.18592 5.84092
RightFoot  -19.9971 -0.0844119 0.664779
RightToes  -1.81608e-008 0 -3.6325e-017
Spine  29.3053 -2.60314 2.5133
Spine1  -10.2909 -1.50154 -6.04242
HEad  -37.8659 -4.13331 1.29217
LeftShoulder1  0.548106 -0.935372 -4.41875
LeftArm  -14.8573 -71.3352 -42.0439
LeftForeArm  -27.7013 -9.93808 -3.217
LeftHand  -0.149241 9.83336 -2.39384
RightShoulder  0.540978 0.883564 4.44042
RightArm  -23.2835 68.9251 21.7748
RightForeArm  -38.6405 8.03305 3.67652
RightHand  0.143399 2.71778 1.85596
LeftUpLeg  -15.0442 15.8327 20.4608
LeftLeg  1.87522 -15.5502 0.563155
LeftFoot  6.28251 5.02958 -31.8954
LeftToes  1.81866e-011 -6.13092e-011 2.52013e-011
1649
root  63.7985 33.4286 5.11209 113.68 80.6854 109.159
RightUpLeg  -42.8937 -8.4325 -14.327
RightLeg  61.0508 3.41346 6.16723
RightFoot  -20.1014 -0.0332705 1.33426
RightToes  -1.81608e-008 0 -3.6325e-017
Spine  29.8626 -2.75522 2.28366
Spine1  -10.6281 -1.63707 -6.69177
HEad  -39.4152 -3.99041 0.877705
LeftShoulder1  0.560379 -1.23971 -3.82075
LeftArm  -16.1365 -72.5936 -40.3346
LeftForeArm  -28.9367 -8.12124 -3.00875
LeftHand  -0.135082 10.3949 -1.72216
RightShoulder  0.544854 1.08713 3.90575
RightArm  -25.9826 69.881 21.4276
RightForeArm  -36.5671 6.03136 2.67119
RightHand  0.147951 1.7994 2.23197
LeftUpLeg  -14.8273 16.2159 20.4355
LeftLeg  1.47118 -15.0402 0.101339
LeftFoot  6.03896 5.07034 -32.5888
LeftToes  1.81866e-011 -6.13092e-011 2.52013e-011
1650
root  63.8749 33.5996 4.86403 111.545 80.9789 106.244
RightUpLeg  -43.1641 -7.96861 -14.5377
RightLeg  59.9437 3.40245 5.86059
RightFoot  -19.0901 -0.0478874 1.20418
RightToes  -1.81608e-008 0 -3.6325e-017
Spine  30.3118 -2.96448 2.89025
Spine1  -10.9545 -1.58756 -7.87715
HEad  -40.5337 -4.40072 0.593833
LeftShoulder1  0.610205 -1.78925 -3.49397
LeftArm  -16.9643 -73.3327 -39.2684
LeftForeArm  -29.1998 -6.99158 -2.86819
LeftHand  -0.126809 10.1931 -1.6294
RightShoulder  0.525536 1.07851 3.46218
RightArm  -27.747 70.6492 20.1194
RightForeArm  -37.1885 4.30064 2.33135
RightHand  0.134552 1.86306 1.99452
LeftUpLeg  -15.0857 15.7655 20.034
LeftLeg  1.21949 -14.0035 0.467791
LeftFoot  6.27528 5.03145 -31.9498
LeftToes  1.81866e-011 -6.13092e-011 2.52013e-011
1651
root  63.9194 33.7884 4.64153 113.11 81.3882 106.839
RightUpLeg  -43.3937 -8.13249 -14.3156
RightLeg  58.5826 3.66807 6.00427
RightFoot  -18.8019 0.00835912 2.07983
RightToes  -1.81608e-008 0 -3.6325e-017
Spine  30.7332 -3.14412 2.78483
Spine1  -11.5775 -1.83865 -7.46244
HEad  -41.2144 -4.00799 0.507509
LeftShoulder1  0.596042 -1.84532 -3.06339
LeftArm  -17.7937 -73.9822 -38.2096
LeftForeArm  -29.2813 -5.65145 -2.70019
LeftHand  -0.152469 10.5299 -2.04452
RightShoulder  0.530557 1.35033 2.83577
RightArm  -28.9933 71.47 19.9545
RightForeArm  -37.9381 2.58602 1.91483
RightHand  0.109495 1.97512 1.5654
LeftUpLeg  -16.1901 15.5568 19.7028
LeftLeg  1.49407 -13.4064 0.591165
LeftFoot  6.76511 4.90306 -30.3713
LeftToes  1.81866e-011 -6.13092e-011 2.52013e-011
1652
root  63.9792 33.9762 4.40248 114.375 81.9648 107.279
RightUpLeg  -43.4829 -8.55256 -13.9227
RightLeg  57.2477 4.00672 6.25725
RightFoot  -17.8679 0.00351122 2.1899
RightToes  -1.81608e-008 0 -3.6325e-017
Spine  31.0424 -3.05272 2.86397
Spine1  -12.0297 -1.84399 -6.54004
HEad  -41.1603 -4.15838 0.169486
LeftShoulder1  0.615489 -2.13874 -2.79623
LeftArm  -18.0729 -74.4214 -37.4724
LeftForeArm  -29.9425 -4.57148 -2.75673
LeftHand  -0.125512 10.1809 -1.62224
RightShoulder  0.500319 1.35197 2.12897
RightArm  -30.2674 72.7391 19.2936
RightForeArm  -37.537 -0.0240505 1.54058
RightHand  0.0789178 2.12335 1.04565
LeftUpLeg  -16.7378 15.5044 19.6716
LeftLeg  1.10866 -13.045 0.796604
LeftFoot  7.08342 4.8504 -29.5691
LeftToes  1.81866e-011 -6.13092e-011 2.52013e-011
1653
root  64.1013 34.1533 4.17092 109.992 82.4925 102.318
RightUpLeg  -43.5164 -8.14819 -13.8484
RightLeg  56.0558 4.10802 6.12918
RightFoot  -16.7762 -0.0188665 1.94697
RightToes  -1.81608e-008 0 -3.6325e-017
Spine  31.4647 -2.90801 3.05442
Spine1  -12.4453 -1.57214 -7.0335
HEad  -41.8764 -3.65854 0.645668
LeftShoulder1  0.625803 -2.3256 -2.60104
LeftArm  -18.6548 -74.9283 -37.2621
LeftForeArm  -29.45 -3.65935 -2.39563
LeftHand  -0.124526 10.6523 -1.39055
RightShoulder  0.491717 1.58425 1.39288
RightArm  -31.7461 73.5973 18.7702
RightForeArm  -36.496 -2.56488 0.937229
RightHand  0.108188 1.79804 1.58881
LeftUpLeg  -16.3262 15.6048 19.7662
LeftLeg  0.448256 -12.3039 0.853393
LeftFoot  7.27852 4.82907 -29.1509
LeftToes  1.81866e-011 -6.13092e-011 2.52013e-011
